<svg viewBox="0 0 760 300" role="img" aria-label="上半是未成形的假数对，下半是成立的显性数对" xmlns="http://www.w3.org/2000/svg" width="760" height="300"><style> svg{display:block;width:100%;height:auto}
 .lab2{font-size:11.5px;fill:#777}
 .labk{font-size:13.5px;fill:#000;font-weight:600}
 .st{fill:none;stroke:#1c1c1c;stroke-width:1.5}
 .st-thin{fill:none;stroke:#9a9a9a;stroke-width:.9;stroke-dasharray:4 3}
 .st-red{fill:none;stroke:#c0392b;stroke-width:1.3}
 .st-blue{fill:none;stroke:#0f6ab5;stroke-width:1.3;stroke-dasharray:6 3}
 .st-bad{fill:none;stroke:#c0392b;stroke-width:1.6}
 .f-g1{fill:#f2f2f2}
 .dot{fill:#c0392b}
 .bg-paper{fill:#fff}
 text{font-family:"PingFang SC","Microsoft YaHei",system-ui,sans-serif;fill:#1c1c1c}
 .gl-h{stroke:#1c1c1c;stroke-width:2;fill:none}
 .grid{stroke:#c9c4ba;stroke-width:1;fill:none}
 .grid-h{stroke:#1c1c1c;stroke-width:2;fill:none}
 .cell{fill:#fff}
 .hl{fill:#ffe9a8}
.hlc{fill:#f7d5d5}
.hlb{fill:#d8e9f6}
 .num{font-size:15px;fill:#1c1c1c}
.num-g{font-size:15px;fill:#9a9a9a}
.cand{font-size:8.6px;fill:#6f6f6f}
 .arrow{fill:none;stroke:#0f6ab5;stroke-width:1.6}
 .mid{font-size:17px;fill:#1c1c1c}</style>
    <rect class="bg-paper" width="760" height="300"/>
    <text class="labk" x="40" y="32">上：假数对，不许删任何候选；下：真数对，才许清扫全行</text>
    <rect class="cell" x="40" y="48" width="66" height="66"/>
    <rect class="cell" x="116" y="48" width="66" height="66"/>
    <rect class="hlc" x="116" y="48" width="66" height="66"/>
    <rect class="cell" x="192" y="48" width="66" height="66"/>
    <rect class="cell" x="268" y="48" width="66" height="66"/>
    <rect class="cell" x="344" y="48" width="66" height="66"/>
    <rect class="cell" x="420" y="48" width="66" height="66"/>
    <rect class="hlc" x="420" y="48" width="66" height="66"/>
    <rect class="cell" x="496" y="48" width="66" height="66"/>
    <rect class="cell" x="572" y="48" width="66" height="66"/>
    <rect class="cell" x="648" y="48" width="66" height="66"/>
    <text class="num" x="73" y="92">.</text>
    <text class="num" x="149" y="92">.</text>
    <text class="num" x="225" y="92">.</text>
    <text class="num" x="301" y="92">.</text>
    <text class="num" x="377" y="92">.</text>
    <text class="num" x="453" y="92">.</text>
    <text class="num" x="529" y="92">.</text>
    <text class="num" x="605" y="92">.</text>
    <text class="num" x="681" y="92">.</text>
    <text class="cand" x="120" y="64">{2,5,7}</text>
    <text class="cand" x="424" y="64">{2,5,8}</text>
    <text class="lab2" x="40" y="140">两格都含 2、5，但第 2 格还挂着 7、第 6 格还挂着 8。</text>
    <text class="lab2" x="430" y="140">7 和 8 随时可能落进这两格，位置没被占死。</text>
    <rect class="cell" x="40" y="158" width="66" height="66"/>
    <rect class="cell" x="116" y="158" width="66" height="66"/>
    <rect class="hl" x="116" y="158" width="66" height="66"/>
    <rect class="cell" x="192" y="158" width="66" height="66"/>
    <rect class="cell" x="268" y="158" width="66" height="66"/>
    <rect class="cell" x="344" y="158" width="66" height="66"/>
    <rect class="cell" x="420" y="158" width="66" height="66"/>
    <rect class="hl" x="420" y="158" width="66" height="66"/>
    <rect class="cell" x="496" y="158" width="66" height="66"/>
    <rect class="cell" x="572" y="158" width="66" height="66"/>
    <rect class="cell" x="648" y="158" width="66" height="66"/>
    <text class="num" x="73" y="202">.</text>
    <text class="num" x="149" y="202">.</text>
    <text class="num" x="225" y="202">.</text>
    <text class="num" x="301" y="202">.</text>
    <text class="num" x="377" y="202">.</text>
    <text class="num" x="453" y="202">.</text>
    <text class="num" x="529" y="202">.</text>
    <text class="num" x="605" y="202">.</text>
    <text class="num" x="681" y="202">.</text>
    <text class="cand" x="120" y="174">{2,5}</text>
    <text class="cand" x="424" y="174">{2,5}</text>
    <text class="lab" x="40" y="254">候选表被压到只剩 {2,5}、{2,5}，数对才算成形，才可以动删的手。</text>
    <text class="lab2" x="40" y="278">判断只看一点：这两格里除了 2 和 5，还有没有别的数字活着？</text>
  </svg>