<svg viewBox="0 0 360 250" role="img" aria-label="正确做法：柔和缓慢，身体中正、呼吸不断" xmlns="http://www.w3.org/2000/svg" width="360" height="250"><style> svg{display:block;width:100%;height:auto}
 .lab2{font-size:11.5px;fill:#777}
 .labk{font-size:13.5px;fill:#000;font-weight:600}
 .st{fill:none;stroke:#1c1c1c;stroke-width:1.5}
 .st-thin{fill:none;stroke:#9a9a9a;stroke-width:.9;stroke-dasharray:4 3}
 .st-red{fill:none;stroke:#c0392b;stroke-width:1.3}
 .st-blue{fill:none;stroke:#0f6ab5;stroke-width:1.3;stroke-dasharray:6 3}
 .st-ok{fill:none;stroke:#2f7d42;stroke-width:1.6}
 .st-bad{fill:none;stroke:#c0392b;stroke-width:1.6}
 .f-g1{fill:#f2f2f2}
.f-g2{fill:#dcdcdc}
.f-g3{fill:#bfbfbf}
.f-g4{fill:#8f8f8f}
.f-g5{fill:#4f4f4f}
 .f-white{fill:#fff}
 .dot{fill:#c0392b}
 .bg-paper{fill:#fff}
 text{font-family:"PingFang SC","Microsoft YaHei",system-ui,sans-serif;fill:#1c1c1c}
 .body-line{fill:none;stroke:#1c1c1c;stroke-width:3.4;stroke-linecap:round;stroke-linejoin:round}
 .joint{fill:#c0392b}
.head{fill:#fff;stroke:#1c1c1c;stroke-width:2}
 .arrow{fill:none;stroke:#0f6ab5;stroke-width:1.6}
 .arrow-r{fill:none;stroke:#c0392b;stroke-width:1.6}</style>
  <rect width="360" height="250" class="bg-paper"/>
  <text x="14" y="22" class="labk">✓ 正解：慢、匀、不断呼吸</text>
  <circle class="head" cx="170" cy="66" r="15"/>
  <line class="body-line" x1="170" y1="81" x2="170" y2="160"/>
  <line class="body-line" x1="144" y1="98" x2="196" y2="98"/>
  <line class="body-line" x1="144" y1="98" x2="132" y2="136"/>
  <line class="body-line" x1="196" y1="98" x2="208" y2="136"/>
  <line class="body-line" x1="170" y1="160" x2="158" y2="205"/>
  <line class="body-line" x1="170" y1="205" x2="157" y2="212"/>
  <line class="body-line" x1="170" y1="160" x2="182" y2="205"/>
  <line class="body-line" x1="182" y1="205" x2="195" y2="212"/>
  <path class="arrow" d="M250 90 a22 22 0 1 1 -0 44"/>
  <text x="278" y="112" class="lab2">匀</text>
  <circle class="joint" cx="144" cy="98" r="4"/><circle class="joint" cx="196" cy="98" r="4"/>
  <circle class="joint" cx="158" cy="205" r="4"/><circle class="joint" cx="182" cy="205" r="4"/>
  <text x="14" y="128" class="lab2">肩松</text>
  <text x="14" y="150" class="lab2">腰松</text>
  <text x="14" y="172" class="lab2">膝对脚尖</text>
  <text x="14" y="232" class="lab2">标准：能说话、微热、动作不变形</text>
</svg>